# xmcd
#
# Track frame offsets: 
#        150
#        16450
#        30883
#        48527
#        68936
#        81760
#        97767
#        111346
#        128973
#        145314
#        165177
#        180338
#        195122
#        209833
#        223973
#        239388
#        251153
#        270838
#        287876
#        305576
#        320089
#
# Disc length: 4428 seconds
#
# Revision: 0
# Processed by: cddbd v1.5.2PL0 Copyright (c) Steve Scherf et al.
# Submitted via: ExactAudioCopyFreeDBPlugin 1.0
#
DISCID=2f114a15
DTITLE=Colin Buchanan - Bourke To Beaconsfield - Greatest Hits
DYEAR=2006
DGENRE=Country
TTITLE0=Galahs In The Gidgee
TTITLE1=Come What May
TTITLE2=Uncle Viv
TTITLE3=She Waits
TTITLE4=The Local District Show
TTITLE5=A Drovers Wife
TTITLE6=Silver Bullet
TTITLE7=North Bourke Bridge
TTITLE8=Paradise
TTITLE9=The Measure Of A Man
TTITLE10=Tough Job
TTITLE11=That Old Caravan
TTITLE12=Edge Of The Kimberley
TTITLE13=Rocko
TTITLE14=Land Of The Getaway
TTITLE15=Doo Wah Didjeri
TTITLE16=The Bishop Of Burrill
TTITLE17=House No 163
TTITLE18=Missin' Slim
TTITLE19=Beaconsfield
TTITLE20=Goodbye Crocodile Hunter
EXTD=
EXTT0=
EXTT1=
EXTT2=
EXTT3=
EXTT4=
EXTT5=
EXTT6=
EXTT7=
EXTT8=
EXTT9=
EXTT10=
EXTT11=
EXTT12=
EXTT13=
EXTT14=
EXTT15=
EXTT16=
EXTT17=
EXTT18=
EXTT19=
EXTT20=
PLAYORDER=
